<svg class="SVGInline-svg Svg-s1h8qlqz-0-svg gudGUP-svg" id="Layer_1" width="106px" data-name="Layer 1" xmlns="http://www.w3.org/2000/svg" xmlns:xlink="http://www.w3.org/1999/xlink" viewBox="0 0 1785.6 607.2">
    <defs>
        <clipPath id="clip-path" transform="translate(3.02 -11.77)">
            <rect class="cls-1" x="-3.02" y="2.99" width="1785.6" height="623.97"></rect>
        </clipPath>
    </defs>
    <g class="cls-2">
        <path d="M17.66,259c-1.09,3.95-1.31,8.17-2.1,13.53,5.11-4.79,9.17-8.59,13.2-12.35l14.93,8.53c-1.83-4.31-3-7.67-4.64-10.8-1.93-3.75-2.25-6.72,1.67-9.59,2.71-2,4.79-4.83,8.29-8.45l-16.86,3-8.28-16.07c-1.08,5.49-1.62,9.69-2.82,13.7a6.28,6.28,0,0,1-3.66,3.7c-4,1.13-8.23,1.61-13.9,2.59,4.51,2.36,7.54,4.14,10.74,5.6,3,1.36,4.42,3,3.43,6.65" transform="translate(3.02 -11.77)"></path>
        <path d="M23.38,402.29l1,.22c1.79-4,3.74-7.95,5.28-12.05,1-2.6,2.4-3.25,5-2.74,4.28.88,8.63,1.46,14.55,2.41-4.81-4.81-8.47-8.48-12.26-12.29,2.33-5,4.61-9.93,7.35-15.84-4.87,2.42-8.85,4.23-12.69,6.33-2.42,1.35-4.17,1.37-6.17-.87-2.74-3.08-5.87-5.81-9.94-9.73,1,5.64,1.55,9.7,2.47,13.67.59,2.63-.17,4-2.57,5.26-3.66,1.88-7.07,4.21-11.66,7,5.18.76,9,1.53,12.86,1.8,2.87.23,4.26,1.18,4.59,4.19.47,4.25,1.41,8.44,2.15,12.65" transform="translate(3.02 -11.77)"></path>
        <path d="M54,448.83c3.77.56,7.71,0,11.59,0,.4-.67.82-1.35,1.24-2-2.35-1-4.92-1.71-7-3.12-7.06-4.71-7-4.83-4.64-12.75.79-2.67,1.5-5.37,2.6-9.41-3.38,2.42-5.58,4-7.72,5.53-6.86,5.05-6.84,5.05-13.59.34L29,422.23c2,5.42,3.67,9.36,4.73,13.46a5.83,5.83,0,0,1-1.37,4.87c-3.37,3-7.18,5.59-11.88,9.14,5,0,8.8.24,12.5-.11,4.37-.42,7,.82,8.1,5.41.78,3.35,2.37,6.51,4.08,11,1.23-5.07,2.31-8.66,3-12.33s1.64-5.49,5.93-4.84" transform="translate(3.02 -11.77)"></path>
        <path d="M164.69,601.09c3.49-2.78,7.33-5.11,12.17-8.41-5.26-.37-9.19-.33-13-1.06a7.09,7.09,0,0,1-4.49-3.47c-1.71-3.89-2.71-8.07-4.38-13.25-2,4.55-3.71,7.74-4.69,11.12-1.08,3.74-3.2,4.6-6.75,4.17-3.88-.46-7.8-.45-12.85-.71l14.33,11.94-6.63,14.19c.27.25.53.48.8.74a86.17,86.17,0,0,0,7.77-4.7c3.82-2.89,7-3.11,10.57.53,2.46,2.53,5.46,4.53,8.22,6.79-.36-5.3-1.85-9.32-2.73-13.48a5.35,5.35,0,0,1,1.63-4.4" transform="translate(3.02 -11.77)"></path>
        <path d="M82.72,497A6.11,6.11,0,0,1,80,492.68c-.22-4.45.17-9,.36-14.41-4.17,4.89-7.67,9-11.1,13l-15-6.48-.92.71c2,3.48,4,7,6.16,10.44,1.34,2.1,1.5,3.76-.39,5.77-2.85,3.06-5.32,6.45-7.94,9.69a26.22,26.22,0,0,0,9.76-1.58c4.36-1.63,7.31-1,9.2,3.72,1.34,3.34,3.45,6.37,5.22,9.54,1.54-4.59,1.79-9,2.69-13.2A6.27,6.27,0,0,1,81.53,506c3.92-1.45,8.07-2.27,13.43-3.67-4.89-2.07-8.73-3.38-12.24-5.32" transform="translate(3.02 -11.77)"></path>
        <path d="M14,323.44c.4,4.22.13,8.5.13,12.77.55.36,1.1.72,1.65,1.1,2.54-4.82,5.08-9.62,7.38-14l17.13,5.9c-2.09-4.44-4.92-7.85-7.19-11.6a5.72,5.72,0,0,1,0-5.1,127.8,127.8,0,0,1,8.32-10.08l-1.6-1.18c-3.77,1.06-7.73,1.69-11.25,3.3s-5.26.45-7-2.4c-1.9-3.06-4.09-5.93-7-10-.14,6.73-.26,12-.37,17.39L-3,315c5.64,1.73,9.94,2.77,14,4.41a5.87,5.87,0,0,1,3,4.07" transform="translate(3.02 -11.77)"></path>
        <path d="M52.75,145.91l16.36-6.73c3.66,4.1,7.27,8.13,11.77,13.2-.3-5.16-.43-9-.78-12.83-.3-3.25.53-5.34,3.92-6.62s6.5-3.45,10.78-5.82c-5.24-1-9.3-2.08-13.41-2.58-2.85-.35-3.72-1.51-3.71-4.28,0-4.13-.43-8.27-.76-13.7-3.13,4.77-5.76,8.33-7.93,12.14-1.38,2.43-2.91,2.77-5.39,2.08-4-1.11-8.14-2-13.7-3.27,4.91,5.22,8.68,9.26,12.51,13.34-3.17,4.94-6.09,9.49-9.66,15.07" transform="translate(3.02 -11.77)"></path>
        <path d="M119.28,556.85c3.92-1.49,7.72-3.26,12.77-5.43-5.47-1.34-9.54-2.52-13.68-3.33-2.82-.53-4.07-1.58-4-4.71.13-4-.41-8.1-.73-13.41-3.28,5.4-6,9.85-8.9,14.57-5.25-1.18-10.45-2.37-17.05-3.87,4.41,5.25,7.86,9.34,11.37,13.49-3.09,4.81-6,9.39-9.59,15,5.28-2.15,9.41-4,13.72-5.4a5.37,5.37,0,0,1,4.54,1c3.11,3,5.83,6.48,9.61,10.8-.47-5.38-.54-9.44-1.27-13.37-.59-3,.58-4.31,3.16-5.3" transform="translate(3.02 -11.77)"></path>
        <path d="M90.53,90.08c3.45-.87,7-1.4,10.32-2.64,4.75-1.8,7.58-.23,9.79,4a80.62,80.62,0,0,0,5,7.56l1-.31c0-5.1,0-10.21.05-15.68l18-4.69c-4.69-1.93-8.23-3.61-11.93-4.84-3.4-1.12-4.94-2.81-4.34-6.64.56-3.48.35-7.11.51-12.06-3.72,4-6.42,7.34-9.63,10.12a7.07,7.07,0,0,1-5.52,1.23c-3.74-1-7.28-2.66-12.2-4.58,3,5.05,5.46,8.79,7.44,12.79a5.44,5.44,0,0,1-.4,4.68c-2.58,3.4-5.63,6.4-8.21,11" transform="translate(3.02 -11.77)"></path>
        <path d="M143.1,32.65c-3.3,2.24-6.25,5-10.42,8.48,5.74-.34,10.1-.82,14.45-.73a5.34,5.34,0,0,1,3.9,2.53c2,4,3.59,8.28,5.78,13.54,1.47-6.45,2.66-11.74,3.93-17.33l17.58-1.38c-5.71-3.64-10.21-6.51-14.73-9.42,1.33-5.37,2.58-10.45,4.11-16.57-4,3.49-7.25,6-10,8.9-2.15,2.27-3.78,2.13-6.14.5-3.48-2.38-7.17-4.45-12-7.4,2,5.13,3.43,9.06,5.1,12.91,1.12,2.53,1,4.24-1.54,6" transform="translate(3.02 -11.77)"></path>
        <path d="M29.64,206.07l.92.52c4.39-2.85,8.78-5.67,13.29-8.6,4.27,3.39,8.41,6.65,13.47,10.66-1.68-5.47-3.15-9.5-4-13.67a5.39,5.39,0,0,1,1.7-4.39c3.46-2.77,7.28-5.11,12-8.33l-17.41-1.2c-1.42-5.32-2.76-10.29-4.42-16.5-2.48,6.32-4.41,11.2-6.37,16.23L21.18,180,35.31,191c-2,5.21-3.82,10.17-5.67,15.1" transform="translate(3.02 -11.77)"></path>
        <path d="M1761.91,371.74c1.07-4,1.32-8.17,2.1-13.53l-13.2,12.34L1735.87,362c1.84,4.32,3,7.67,4.64,10.82,2,3.75,2.25,6.72-1.67,9.58-2.7,2-4.79,4.82-8.28,8.45,6.58-1.15,11.58-2,16.85-3L1755.7,404c1.09-5.51,1.63-9.7,2.81-13.71a6.27,6.27,0,0,1,3.67-3.7c4-1.13,8.23-1.6,13.88-2.59-4.49-2.36-7.53-4.14-10.73-5.59-3-1.37-4.41-3-3.42-6.65" transform="translate(3.02 -11.77)"></path>
        <path d="M1756.19,228.44l-1-.22c-1.78,4-3.73,7.95-5.27,12-1,2.61-2.41,3.26-5,2.75-4.29-.87-8.64-1.46-14.56-2.4,4.81,4.8,8.47,8.47,12.26,12.28-2.32,5-4.6,9.93-7.35,15.83,4.86-2.41,8.84-4.22,12.67-6.32,2.43-1.35,4.19-1.37,6.18.87,2.74,3.08,5.87,5.81,10,9.75-1-5.67-1.56-9.71-2.47-13.68-.61-2.65.17-4,2.56-5.26,3.65-1.88,7.08-4.22,11.65-7-5.17-.76-9-1.53-12.85-1.8-2.87-.23-4.26-1.18-4.59-4.19-.46-4.24-1.4-8.45-2.14-12.65" transform="translate(3.02 -11.77)"></path>
        <path d="M1725.54,181.91c-3.78-.56-7.72,0-11.6,0l-1.25,2c2.36,1,4.93,1.72,7,3.14,7.07,4.71,7,4.82,4.64,12.74-.79,2.67-1.5,5.38-2.6,9.41,3.39-2.42,5.59-4,7.73-5.53,6.85-5.06,6.84-5.06,13.59-.34,2.15,1.5,4.31,3,7.5,5.15-2-5.43-3.67-9.37-4.73-13.46a5.87,5.87,0,0,1,1.36-4.88c3.38-3,7.19-5.59,11.88-9.13-5,0-8.8-.24-12.49.1-4.38.42-7-.82-8.1-5.4-.78-3.36-2.37-6.52-4.08-11-1.23,5-2.32,8.64-3,12.34-.59,3.52-1.64,5.49-5.92,4.83" transform="translate(3.02 -11.77)"></path>
        <path d="M1614.88,29.65c-3.51,2.77-7.34,5.11-12.18,8.4,5.27.37,9.2.34,13,1.06a7.08,7.08,0,0,1,4.48,3.47c1.71,3.89,2.73,8.07,4.39,13.25,2-4.55,3.71-7.73,4.68-11.13,1.09-3.73,3.21-4.59,6.76-4.16,3.86.46,7.79.45,12.85.71-5.46-4.55-9.88-8.22-14.33-11.94,2.32-4.95,4.47-9.59,6.63-14.2l-.81-.71a79.6,79.6,0,0,0-7.77,4.68c-3.81,2.91-7,3.11-10.56-.52-2.46-2.54-5.47-4.54-8.23-6.79.37,5.28,1.85,9.31,2.73,13.47a5.36,5.36,0,0,1-1.62,4.41" transform="translate(3.02 -11.77)"></path>
        <path d="M1696.84,133.72a6.09,6.09,0,0,1,2.72,4.33c.23,4.46-.17,9-.35,14.41,4.17-4.88,7.67-9,11.1-13l15,6.48c.31-.24.63-.47.93-.71-2-3.48-4-7-6.16-10.42-1.33-2.12-1.49-3.77.4-5.78,2.83-3.07,5.31-6.46,7.94-9.69a26,26,0,0,0-9.76,1.58c-4.36,1.62-7.31,1-9.21-3.74-1.33-3.33-3.44-6.36-5.22-9.53-1.54,4.59-1.78,9-2.69,13.2a6.19,6.19,0,0,1-3.48,3.86c-3.92,1.45-8.07,2.28-13.43,3.67,4.9,2.08,8.74,3.38,12.24,5.32" transform="translate(3.02 -11.77)"></path>
        <path d="M1765.55,307.3c-.4-4.23-.12-8.51-.13-12.77l-1.65-1.11c-2.53,4.82-5.08,9.62-7.39,14l-17.12-5.91c2.1,4.45,4.93,7.86,7.2,11.6a5.79,5.79,0,0,1,0,5.12,128.18,128.18,0,0,1-8.33,10.07l1.6,1.18c3.78-1.07,7.74-1.68,11.24-3.3s5.27-.44,7,2.4c1.87,3.06,4.07,5.93,6.93,10,.15-6.73.27-12,.38-17.38l17.24-5.45c-5.63-1.71-9.93-2.77-14-4.41a5.86,5.86,0,0,1-3-4.06" transform="translate(3.02 -11.77)"></path>
        <path d="M1726.81,484.83l-16.36,6.73-11.77-13.21c.3,5.17.43,9,.79,12.83.3,3.25-.54,5.34-3.92,6.62s-6.5,3.46-10.78,5.83c5.24,1,9.3,2.07,13.4,2.58,2.86.35,3.72,1.5,3.71,4.27,0,4.14.43,8.28.76,13.7,3.13-4.76,5.76-8.33,7.94-12.14,1.38-2.42,2.91-2.77,5.38-2.08,4,1.12,8.14,2,13.71,3.27-4.91-5.22-8.69-9.26-12.51-13.34,3.17-4.95,6.09-9.49,9.65-15.06" transform="translate(3.02 -11.77)"></path>
        <path d="M1660.29,73.88c-3.92,1.5-7.72,3.26-12.77,5.43,5.46,1.35,9.54,2.53,13.68,3.33,2.81.53,4,1.59,4,4.72-.14,4,.4,8.1.72,13.4,3.29-5.39,6-9.85,8.92-14.57l17,3.87-11.37-13.49c3.08-4.82,6-9.38,9.58-15-5.28,2.14-9.41,4-13.71,5.39a5.3,5.3,0,0,1-4.54-1c-3.12-3-5.84-6.47-9.63-10.79.48,5.39.56,9.44,1.29,13.38.58,3-.58,4.3-3.16,5.29" transform="translate(3.02 -11.77)"></path>
        <path d="M1689.05,540.67c-3.47.84-7,1.38-10.34,2.62-4.74,1.8-7.58.24-9.79-4a79.33,79.33,0,0,0-5-7.56l-1,.31c0,5.1,0,10.2,0,15.67l-18,4.7c4.68,1.93,8.22,3.6,11.93,4.84,3.4,1.11,4.94,2.81,4.33,6.63-.56,3.48-.33,7.1-.5,12.06,3.71-4,6.42-7.33,9.62-10.12a7.14,7.14,0,0,1,5.54-1.23c3.73,1,7.26,2.67,12.18,4.57-3-5-5.45-8.79-7.43-12.79a5.38,5.38,0,0,1,.4-4.68c2.58-3.38,5.63-6.4,8.22-11" transform="translate(3.02 -11.77)"></path>
        <path d="M1636.46,598.08c3.31-2.24,6.25-5,10.43-8.47-5.74.34-10.11.82-14.45.73a5.35,5.35,0,0,1-3.9-2.53c-2-4-3.6-8.29-5.79-13.55-1.46,6.46-2.65,11.75-3.92,17.33L1601.24,593l14.74,9.41c-1.34,5.38-2.59,10.46-4.12,16.59,4-3.51,7.26-6,10.05-8.92,2.14-2.26,3.78-2.11,6.13-.49,3.48,2.39,7.17,4.46,12,7.4-2-5.12-3.42-9.06-5.1-12.91-1.12-2.52-1-4.23,1.54-6" transform="translate(3.02 -11.77)"></path>
        <path d="M1749.93,424.66c-.32-.17-.62-.34-.92-.52l-13.29,8.61-13.48-10.67c1.68,5.47,3.16,9.5,4,13.66a5.37,5.37,0,0,1-1.71,4.4c-3.47,2.78-7.28,5.11-12,8.33l17.41,1.2c1.43,5.33,2.76,10.29,4.42,16.5,2.49-6.31,4.42-11.21,6.38-16.23l17.64.76-14.13-10.93c2-5.22,3.81-10.17,5.67-15.11" transform="translate(3.02 -11.77)"></path>
        <path style="fill: #fff;" d="M502.43,260a7.25,7.25,0,0,0,1.45.31l72-85.23c-9.17-9.72-9.18-9.72-20.84-4.9a13.7,13.7,0,0,0-1.5.71c-4.21,2.52-7.83,2-12.16-.64-21.22-12.69-43.57-22.94-67.5-29.44-37.4-10.14-75.36-11.7-113.78-7.83-31.71,3.19-61.91,11.27-89.9,26.73-28.48,15.74-51.19,37.59-66.35,66.45-22.74,43.26-26.55,89.28-15.72,136.27,12.33,53.67,45.42,91,94.9,114.26,28.39,13.37,58.54,20,89.6,22.13,47.76,3.33,94-3.75,137.87-23.47,20.32-9.15,38.76-21.24,52.47-39.36a14.24,14.24,0,0,0,2.67-7.94c.16-43.33.11-86.64.11-130v-5.7H366.39V376.7c12.14,1.8,12.14,1.8,17.46-8.18a29.77,29.77,0,0,0,2.3-4.45c1.26-3.83,3.81-4.67,7.66-4.66,29.75.16,59.5.09,89.25.11,1.81,0,3.62.15,5.95.26,0,15.13.09,30-.13,44.77a6.07,6.07,0,0,1-3,4.24c-8.17,4.26-16.11,9.4-24.81,12-31.76,9.65-64.27,10.92-97,5.69-23.56-3.77-45.4-12-64.5-26.77-39-30.11-47.24-82.42-33.2-124.12,13-38.52,41.94-59.46,80.24-68.75,27.87-6.77,56.1-5.48,84.22-1.9,20.55,2.62,40.36,7.88,57.9,19.65,9.22,6.19,9.95,6.3,6.75,16.64-2.69,8.69-.7,14.47,6.88,18.79" transform="translate(3.02 -11.77)"></path>
        <path style="fill: #fff;" d="M1241.84,474.29a79.68,79.68,0,0,0-7.89-2.68c-4.25-.94-7.09-3.36-9.62-6.78Q1194.76,425,1165,385.39l-24.45-32.81c.6-.66.8-1.05,1.12-1.18,2.17-1,4.37-2,6.58-2.95,21.35-9.14,38.13-23.48,49.3-43.93,13.85-25.34,15.11-52.49,10-80.11-6.9-36.9-27.92-62.65-63-76.63-21.75-8.67-44.61-10.86-67.7-10.92-68.8-.17-137.6-.05-206.39-.05h-5.85c-1.28,13.16-1.28,13.16,9.22,18.6a17.36,17.36,0,0,0,2.5,1.2c4.48,1.46,5.81,4.29,5.81,9.14-.17,95.75-.4,191.52.2,287.27.08,12.35-2,20.5-14.78,23.54-1.29.31-3.07,1.94-3.19,3.12a106,106,0,0,0-.15,11.25h111c1.24-12.51,1.24-12.51-9.66-17.62a29.54,29.54,0,0,0-3-1.42c-3.53-1.19-4.91-3.26-4.87-7.33.21-29.38.1-58.76.13-88.14,0-1.61.19-3.21.33-5.34h5.81c33.65,0,67.3.09,101-.09,4,0,6.33,1.31,8.5,4.58Q1103,420,1132.88,464.33c1,1.49,1.85,3.06,3.09,5.15-9,4.69-14.11,11.1-10.35,21.57h126.66c1-12.9,1-12.9-10.44-16.76M1104.28,299.23a115,115,0,0,1-32.69,5.49c-37,.67-73.95.28-110.93.27-.72,0-1.45-.11-2.63-.23V205.59c1.71-.13,3.13-.35,4.58-.35,39.21.14,78.43,0,117.62.62,15.24.25,29.44,5,41.58,14.93,20.09,16.51,21.65,65.86-17.53,78.44" transform="translate(3.02 -11.77)"></path>
        <path style="fill: #fff;" d="M846.7,407.76c-4.32-.64-6.79.76-7.85,5.29-1,4.34-3.09,8.44-4.24,12.77-1,3.9-3,5.16-7.11,5.14q-82.43-.22-164.85-.09h-5.2V359.44h6.08c43,0,86.05.32,129.07-.24,9.68-.15,16.36,1.43,18.95,11.57a4.81,4.81,0,0,0,3.1,3.07,71.68,71.68,0,0,0,9.7.15V290.38c-10.89-1.09-10.89-1.09-15.31,8.28a16.72,16.72,0,0,0-1.25,2.6c-.91,3.51-3,4.52-6.66,4.51q-69.37-.19-138.74-.09H657.5V243.33h6.62q74.91,0,149.85,0c4.82,0,11-1.49,14.08.86,3.3,2.51,3.87,8.76,5.38,13.47,2.93,9.21,2.85,9.23,12.44,8.57a10.44,10.44,0,0,0,1.66-.44V184.28H576.83c-1.86,10.42-1.64,10.9,7.12,15.56a13.18,13.18,0,0,0,2.14,1.11c4.48,1.41,5.71,4.29,5.69,9-.17,82.84-.31,165.66.13,248.49.05,10.16-1.39,17.23-12.3,19.7a5.13,5.13,0,0,0-3.2,3.46c-.48,3.07-.15,6.26-.15,9.39H852.14V407.81a37.48,37.48,0,0,1-5.44-.05" transform="translate(3.02 -11.77)"></path>
        <path style="fill: #fff;" d="M1597.11,137.05H1486.43c-1.29,12.94-1.29,12.94,9.29,18.31a35.26,35.26,0,0,0,4.48,2.23c3.08,1.07,4,3,3.94,6.29-.11,61.91,0,123.81-.2,185.72-.15,33.1-19.48,60.23-50.68,71.38-31.8,11.38-64.11,11.35-96.29,2-21.91-6.34-39.16-19.2-49.19-40.39C1301.71,369.76,1300,356,1300,342c-.08-55,.44-110.06-.4-165.08-.19-12.77,2.31-21.2,15.08-25a4.9,4.9,0,0,0,2.92-3.37,112.25,112.25,0,0,0,.15-11.48H1207.27c-2.15,12.07-2,12.48,8.27,17.92a20.61,20.61,0,0,0,2.94,1.54c4.63,1.61,6,4.56,6,9.63-.22,57.44-.33,114.9,0,172.34a350.61,350.61,0,0,0,3,42.7c2.61,20.15,10.4,38.56,22.35,55,18.92,26.12,45,42.09,75.21,51.81,37.4,12.05,75.66,14,114.44,9,28.84-3.74,56.07-12.14,80.64-28.06,25.32-16.42,42.91-38.86,52.41-67.67,5.94-18.05,7.72-36.57,7.72-55.41,0-56.87.34-113.77-.26-170.65-.12-11.24,1.64-19.28,13.23-23a6.33,6.33,0,0,0,3.72-4.08c.57-3.58.18-7.3.18-11.19" transform="translate(3.02 -11.77)"></path>
    </g>
</svg>